<svg xmlns="http://www.w3.org/2000/svg" viewBox="0 0 512 512" width="512" height="512" role="img" aria-label="Falta de personal">
  <rect width="512" height="512" fill="#000"/>

  <!-- Main active guard silhouettes -->
  <g fill="#fff">
    <!-- Left person -->
    <circle cx="156" cy="150" r="38"/>
    <path d="M108 210c0-22 20-40 48-40s48 18 48 40v32c0 11-9 20-20 20h-56c-11 0-20-9-20-20z"/>
    <rect x="126" y="262" width="24" height="92" rx="10"/>
    <rect x="162" y="262" width="24" height="92" rx="10"/>
    <rect x="94" y="220" width="28" height="84" rx="12" transform="rotate(20 108 262)"/>
    <rect x="190" y="220" width="28" height="84" rx="12" transform="rotate(-20 204 262)"/>

    <!-- Right person -->
    <circle cx="356" cy="150" r="38"/>
    <path d="M308 210c0-22 20-40 48-40s48 18 48 40v32c0 11-9 20-20 20h-56c-11 0-20-9-20-20z"/>
    <rect x="326" y="262" width="24" height="92" rx="10"/>
    <rect x="362" y="262" width="24" height="92" rx="10"/>
    <rect x="294" y="220" width="28" height="84" rx="12" transform="rotate(20 308 262)"/>
    <rect x="390" y="220" width="28" height="84" rx="12" transform="rotate(-20 404 262)"/>
  </g>

  <!-- Missing center slot -->
  <g fill="none" stroke="#fff" stroke-width="18" stroke-linecap="round" stroke-linejoin="round" opacity="0.95">
    <circle cx="256" cy="154" r="34" stroke-dasharray="20 18"/>
    <path d="M214 248c4-38 84-38 88 0" stroke-dasharray="24 18"/>
  </g>

  <!-- Shortage marker -->
  <rect x="188" y="346" width="136" height="44" rx="22" fill="#fff"/>

  <!-- Small crow-guard notch to tie into the same fantasy guard UI vibe -->
  <path d="M256 84l10 18h-20z" fill="#fff" opacity="0.9"/>
</svg>
